# xmcd
#
# Track frame offsets:
#	150
#	18143
#	34939
#	55009
#	75944
#	90506
#	106616
#	128151
#	146238
#	164408
#	183067
#	200931
#	223429
#	241847
#	258195
#	274848
#	295772
#	316057
#
# Disc length: 4481 seconds
#
# Revision: 0
# Processed by: cddbd v1.5.2PL0 Copyright (c) Steve Scherf et al.
# Submitted via: EasyCDDAExtractor 2010.4.0.0
#
DISCID=f5117f12
DTITLE=Jose Feliciano - Esta es mi Historia
DYEAR=2002
DGENRE=
TTITLE0=No hay sombra que me cubra
TTITLE1=Paso la vida pensando
TTITLE2=Para decir adios
TTITLE3=Volvere alguna vez
TTITLE4=Un anor asi
TTITLE5=Que quieres tu de mi
TTITLE6=Samba pa´ti
TTITLE7=Como fue
TTITLE8=Me has eechado al olvido
TTITLE9=En Aranjuez con tu amor
TTITLE10=Somos
TTITLE11=Alma mia
TTITLE12=La balada del pianista
TTITLE13=Ay cariño
TTITLE14=Malas costumbres
TTITLE15=Eterno amor
TTITLE16=Todo el mundo te ama
TTITLE17=El condor pasa
EXTD=
EXTT0=
EXTT1=
EXTT2=
EXTT3=
EXTT4=
EXTT5=
EXTT6=
EXTT7=
EXTT8=
EXTT9=
EXTT10=
EXTT11=
EXTT12=
EXTT13=
EXTT14=
EXTT15=
EXTT16=
EXTT17=
PLAYORDER=
